<?xml version="1.0" encoding="UTF-8" standalone="no"?>
<!DOCTYPE svg PUBLIC "-//W3C//DTD SVG 1.1//EN" "http://www.w3.org/Graphics/SVG/1.1/DTD/svg11.dtd">
<!-- Generated by Microsoft Visio, SVG Export Admin_ScreenFlow.svg Page-2: Admin -->
<svg xmlns="http://www.w3.org/2000/svg" xmlns:xlink="http://www.w3.org/1999/xlink" xmlns:ev="http://www.w3.org/2001/xml-events"
		xmlns:v="http://schemas.microsoft.com/visio/2003/SVGExtensions/" width="8.5in" height="11in" viewBox="0 0 612 792"
		xml:space="preserve" color-interpolation-filters="sRGB" class="st9">
	<v:documentProperties v:langID="1033" v:viewMarkup="false">
		<v:userDefs>
			<v:ud v:nameU="msvNoAutoConnect" v:val="VT0(0):26"/>
		</v:userDefs>
	</v:documentProperties>

	<style type="text/css">
	<![CDATA[
		.st1 {fill:#5b9bd5}
		.st2 {stroke:#ffffff;stroke-linecap:round;stroke-linejoin:round;stroke-width:0.5}
		.st3 {fill:#5b9bd5;stroke:#ffffff;stroke-linecap:round;stroke-linejoin:round;stroke-width:0.5}
		.st4 {fill:#5b9bd5;stroke:#ffffff;stroke-linecap:butt;stroke-width:0.5}
		.st5 {fill:#ffffff;font-family:Calibri;font-size:1.00001em}
		.st6 {marker-end:url(#mrkr4-47);marker-start:url(#mrkr4-45);stroke:#5592c9;stroke-linecap:round;stroke-linejoin:round;stroke-width:0.5}
		.st7 {fill:#5592c9;fill-opacity:1;stroke:#5592c9;stroke-opacity:1;stroke-width:0.16556291390728}
		.st8 {marker-end:url(#mrkr4-47);stroke:#5592c9;stroke-linecap:round;stroke-linejoin:round;stroke-width:0.5}
		.st9 {fill:none;fill-rule:evenodd;font-size:12px;overflow:visible;stroke-linecap:square;stroke-miterlimit:3}
	]]>
	</style>

	<defs id="Markers">
		<g id="lend4">
			<path d="M 2 1 L 0 0 L 2 -1 L 2 1 " style="stroke:none"/>
		</g>
		<marker id="mrkr4-45" class="st7" v:arrowType="4" v:arrowSize="2" v:setback="11.36" refX="11.36" orient="auto"
				markerUnits="strokeWidth" overflow="visible">
			<use xlink:href="#lend4" transform="scale(6.04) "/>
		</marker>
		<marker id="mrkr4-47" class="st7" v:arrowType="4" v:arrowSize="2" v:setback="12.08" refX="-12.08" orient="auto"
				markerUnits="strokeWidth" overflow="visible">
			<use xlink:href="#lend4" transform="scale(-6.04,-6.04) "/>
		</marker>
	</defs>
	<g v:mID="4" v:index="2" v:groupContext="foregroundPage">
		<v:userDefs>
			<v:ud v:nameU="msvThemeOrder" v:val="VT0(0):26"/>
		</v:userDefs>
		<title>Page-2: Admin</title>
		<v:pageProperties v:drawingScale="1" v:pageScale="1" v:drawingUnits="0" v:shadowOffsetX="9" v:shadowOffsetY="-9"/>
		<v:layer v:name="Connector" v:index="0"/>
		<g id="group1-1" transform="translate(62.2908,-599.897)" v:mID="1" v:groupContext="group">
			<v:userDefs>
				<v:ud v:nameU="visVersion" v:prompt="" v:val="VT0(15):26"/>
			</v:userDefs>
			<title>Home page</title>
			<g id="shape2-2" v:mID="2" v:groupContext="shape" transform="translate(0,-4.65517)">
				<title>Sheet.2</title>
				<path d="M0 748.55 L0 792 L31.03 792 L31.03 757.24 L22.34 748.55 L0 748.55 Z" class="st1"/>
				<path d="M0 748.55 L0 792 L31.03 792 L31.03 757.24 L22.34 748.55 L0 748.55" class="st2"/>
				<path d="M22.34 748.55 L22.34 757.24 L31.03 757.24" class="st2"/>
			</g>
			<g id="group3-6" transform="translate(6.2069,0)" v:mID="3" v:groupContext="group">
				<title>Sheet.3</title>
				<g id="shape4-7" v:mID="4" v:groupContext="shape" transform="translate(27.1552,-24.2069)">
					<title>Sheet.4</title>
					<rect x="0" y="778.966" width="4.84914" height="13.0345" class="st3"/>
				</g>
				<g id="shape5-9" v:mID="5" v:groupContext="shape" transform="translate(3.87931,0)">
					<title>Sheet.5</title>
					<path d="M0 792 L31.03 792 L31.03 768.53 L15.52 758.64 L0 768.53 L0 792 Z" class="st4"/>
				</g>
				<g id="shape6-11" v:mID="6" v:groupContext="shape" transform="translate(0,-20.5603)">
					<title>Sheet.6</title>
					<path d="M3.88 792 L0 792 L19.4 776.48 L38.79 792 L34.91 792 L19.4 779.9 L3.88 792 Z" class="st3"/>
				</g>
				<g id="shape7-13" v:mID="7" v:groupContext="shape" transform="translate(14.5474,0)">
					<title>Sheet.7</title>
					<rect x="0" y="775.862" width="9.69828" height="16.1379" class="st3"/>
				</g>
			</g>
		</g>
		<g id="shape8-15" v:mID="8" v:groupContext="shape" transform="translate(48.7908,-675)">
			<title>Web page</title>
			<desc>Login</desc>
			<v:userDefs>
				<v:ud v:nameU="min_width" v:val="VT0(0.47615134648611):1"/>
				<v:ud v:nameU="visVersion" v:prompt="" v:val="VT0(15):26"/>
				<v:ud v:nameU="min_width" v:prompt="" v:val="VT0(0.51106345586111):1"/>
			</v:userDefs>
			<v:textBlock v:margins="rect(4,4,4,4)"/>
			<v:textRect cx="36" cy="774" width="72" height="36"/>
			<rect x="0" y="756" width="72" height="36" rx="9" ry="9" class="st3"/>
			<text x="22.96" y="777.6" class="st5" v:langID="1033"><v:paragraph v:horizAlign="1"/><v:tabList/>Login</text>		</g>
		<g id="shape20-18" v:mID="20" v:groupContext="shape" transform="translate(98.2908,-554.4)">
			<title>Web page.20</title>
			<desc>Dashboard</desc>
			<v:userDefs>
				<v:ud v:nameU="min_width" v:val="VT0(0.47615134648611):1"/>
				<v:ud v:nameU="visVersion" v:prompt="" v:val="VT0(15):26"/>
				<v:ud v:nameU="min_width" v:prompt="" v:val="VT0(0.88492667607595):1"/>
			</v:userDefs>
			<v:textBlock v:margins="rect(4,4,4,4)"/>
			<v:textRect cx="36" cy="774" width="72" height="36"/>
			<rect x="0" y="756" width="72" height="36" rx="9" ry="9" class="st3"/>
			<text x="9.5" y="777.6" class="st5" v:langID="1033"><v:paragraph v:horizAlign="1"/><v:tabList/>Dashboard</text>		</g>
		<g id="shape21-21" v:mID="21" v:groupContext="shape" transform="translate(105.491,-336.96)">
			<title>Web page.21</title>
			<desc>Backing</desc>
			<v:userDefs>
				<v:ud v:nameU="min_width" v:val="VT0(0.47615134648611):1"/>
				<v:ud v:nameU="visVersion" v:prompt="" v:val="VT0(15):26"/>
				<v:ud v:nameU="min_width" v:prompt="" v:val="VT0(0.66983878545095):1"/>
			</v:userDefs>
			<v:textBlock v:margins="rect(4,4,4,4)"/>
			<v:textRect cx="36" cy="774" width="72" height="36"/>
			<rect x="0" y="756" width="72" height="36" rx="9" ry="9" class="st3"/>
			<text x="17.24" y="777.6" class="st5" v:langID="1033"><v:paragraph v:horizAlign="1"/><v:tabList/>Backing</text>		</g>
		<g id="shape22-24" v:mID="22" v:groupContext="shape" transform="translate(195.839,-417.6)">
			<title>Web page.22</title>
			<desc>Dashboard Project</desc>
			<v:userDefs>
				<v:ud v:nameU="min_width" v:val="VT0(0.47615134648611):1"/>
				<v:ud v:nameU="visVersion" v:prompt="" v:val="VT0(15):26"/>
				<v:ud v:nameU="min_width" v:prompt="" v:val="VT0(1):1"/>
			</v:userDefs>
			<v:textBlock v:margins="rect(4,4,4,4)"/>
			<v:textRect cx="50.5371" cy="774" width="101.08" height="36"/>
			<rect x="0" y="756" width="101.074" height="36" rx="9" ry="9" class="st3"/>
			<text x="5.36" y="777.6" class="st5" v:langID="1033"><v:paragraph v:horizAlign="1"/><v:tabList/>Dashboard Project</text>		</g>
		<g id="shape23-27" v:mID="23" v:groupContext="shape" transform="translate(195.839,-367.2)">
			<title>Web page.23</title>
			<desc>Project’s list</desc>
			<v:userDefs>
				<v:ud v:nameU="min_width" v:val="VT0(0.47615134648611):1"/>
				<v:ud v:nameU="visVersion" v:prompt="" v:val="VT0(15):26"/>
				<v:ud v:nameU="min_width" v:prompt="" v:val="VT0(0.97200477055838):1"/>
			</v:userDefs>
			<v:textBlock v:margins="rect(4,4,4,4)"/>
			<v:textRect cx="36" cy="774" width="72" height="36"/>
			<rect x="0" y="756" width="72" height="36" rx="9" ry="9" class="st3"/>
			<text x="6.37" y="777.6" class="st5" v:langID="1033"><v:paragraph v:horizAlign="1"/><v:tabList/>Project’s list</text>		</g>
		<g id="shape26-30" v:mID="26" v:groupContext="shape" transform="translate(105.491,-187.92)">
			<title>Web page.26</title>
			<desc>Message</desc>
			<v:userDefs>
				<v:ud v:nameU="min_width" v:val="VT0(0.47615134648611):1"/>
				<v:ud v:nameU="visVersion" v:prompt="" v:val="VT0(15):26"/>
				<v:ud v:nameU="min_width" v:prompt="" v:val="VT0(0.74584662846853):1"/>
			</v:userDefs>
			<v:textBlock v:margins="rect(4,4,4,4)"/>
			<v:textRect cx="36" cy="774" width="72" height="36"/>
			<rect x="0" y="756" width="72" height="36" rx="9" ry="9" class="st3"/>
			<text x="14.51" y="777.6" class="st5" v:langID="1033"><v:paragraph v:horizAlign="1"/><v:tabList/>Message</text>		</g>
		<g id="shape27-33" v:mID="27" v:groupContext="shape" transform="translate(105.491,-237.6)">
			<title>Web page.27</title>
			<desc>Slider</desc>
			<v:userDefs>
				<v:ud v:nameU="min_width" v:val="VT0(0.47615134648611):1"/>
				<v:ud v:nameU="visVersion" v:prompt="" v:val="VT0(15):26"/>
				<v:ud v:nameU="min_width" v:prompt="" v:val="VT0(0.5305184119158):1"/>
			</v:userDefs>
			<v:textBlock v:margins="rect(4,4,4,4)"/>
			<v:textRect cx="36" cy="774" width="72" height="36"/>
			<rect x="0" y="756" width="72" height="36" rx="9" ry="9" class="st3"/>
			<text x="22.26" y="777.6" class="st5" v:langID="1033"><v:paragraph v:horizAlign="1"/><v:tabList/>Slider</text>		</g>
		<g id="shape28-36" v:mID="28" v:groupContext="shape" transform="translate(105.491,-287.28)">
			<title>Web page.28</title>
			<desc>Category</desc>
			<v:userDefs>
				<v:ud v:nameU="min_width" v:val="VT0(0.47615134648611):1"/>
				<v:ud v:nameU="visVersion" v:prompt="" v:val="VT0(15):26"/>
				<v:ud v:nameU="min_width" v:prompt="" v:val="VT0(0.75618064336111):1"/>
			</v:userDefs>
			<v:textBlock v:margins="rect(4,4,4,4)"/>
			<v:textRect cx="36" cy="774" width="72" height="36"/>
			<rect x="0" y="756" width="72" height="36" rx="9" ry="9" class="st3"/>
			<text x="14.14" y="777.6" class="st5" v:langID="1033"><v:paragraph v:horizAlign="1"/><v:tabList/>Category</text>		</g>
		<g id="shape32-39" v:mID="32" v:groupContext="shape" v:layerMember="0" transform="translate(83.4408,-599.897)">
			<title>Dynamic connector.32</title>
			<path d="M1.35 797.68 L1.35 798.04 L1.35 886.1 L7.01 886.1" class="st6"/>
		</g>
		<g id="group29-48" transform="translate(105.491,-478.8)" v:mID="29" v:groupContext="group">
			<v:userDefs>
				<v:ud v:nameU="offset" v:val="VT0(0.062499999999999):1"/>
				<v:ud v:nameU="visVersion" v:prompt="" v:val="VT0(15):26"/>
			</v:userDefs>
			<title>Page group</title>
			<desc>Users</desc>
			<g id="shape30-49" v:mID="30" v:groupContext="shape" transform="translate(-9,-9)">
				<title>Sheet.30</title>
				<v:userDefs>
					<v:ud v:nameU="min_width" v:val="VT0(0.11111111111111):1"/>
				</v:userDefs>
				<rect x="0" y="756" width="72" height="36" rx="9" ry="9" class="st3"/>
			</g>
			<g id="shape31-51" v:mID="31" v:groupContext="shape" transform="translate(-4.5,-4.5)">
				<title>Sheet.31</title>
				<v:userDefs>
					<v:ud v:nameU="min_width" v:val="VT0(0.11111111111111):1"/>
				</v:userDefs>
				<rect x="0" y="756" width="72" height="36" rx="9" ry="9" class="st3"/>
			</g>
			<g id="shape29-53" v:mID="29" v:groupContext="groupContent">
				<v:textBlock v:margins="rect(4,4,4,4)"/>
				<v:textRect cx="36" cy="774" width="72" height="36"/>
				<rect x="0" y="756" width="72" height="36" rx="9" ry="9" class="st3"/>
				<text x="22.38" y="777.6" class="st5" v:langID="1033"><v:paragraph v:horizAlign="1"/><v:tabList/>Users</text>			</g>
		</g>
		<g id="group33-56" transform="translate(105.491,-393.66)" v:mID="33" v:groupContext="group">
			<v:userDefs>
				<v:ud v:nameU="offset" v:val="VT0(0.062499999999999):1"/>
				<v:ud v:nameU="visVersion" v:prompt="" v:val="VT0(15):26"/>
			</v:userDefs>
			<title>Page group.33</title>
			<desc>Projects</desc>
			<g id="shape34-57" v:mID="34" v:groupContext="shape" transform="translate(-9,-9)">
				<title>Sheet.34</title>
				<v:userDefs>
					<v:ud v:nameU="min_width" v:val="VT0(0.11111111111111):1"/>
				</v:userDefs>
				<rect x="0" y="756" width="72" height="36" rx="9" ry="9" class="st3"/>
			</g>
			<g id="shape35-59" v:mID="35" v:groupContext="shape" transform="translate(-4.5,-4.5)">
				<title>Sheet.35</title>
				<v:userDefs>
					<v:ud v:nameU="min_width" v:val="VT0(0.11111111111111):1"/>
				</v:userDefs>
				<rect x="0" y="756" width="72" height="36" rx="9" ry="9" class="st3"/>
			</g>
			<g id="shape33-61" v:mID="33" v:groupContext="groupContent">
				<v:textBlock v:margins="rect(4,4,4,4)"/>
				<v:textRect cx="36" cy="774" width="72" height="36"/>
				<rect x="0" y="756" width="72" height="36" rx="9" ry="9" class="st3"/>
				<text x="16.33" y="777.6" class="st5" v:langID="1033"><v:paragraph v:horizAlign="1"/><v:tabList/>Projects</text>			</g>
		</g>
		<g id="shape39-64" v:mID="39" v:groupContext="shape" v:layerMember="0" transform="translate(187.633,-145.44)">
			<title>Dynamic connector.39</title>
			<path d="M5.68 792 L6.04 792 L13.5 792 L13.5 765.72 L31.1 765.72" class="st6"/>
		</g>
		<g id="shape40-71" v:mID="40" v:groupContext="shape" v:layerMember="0" transform="translate(187.633,-145.44)">
			<title>Dynamic connector.40</title>
			<path d="M5.68 792 L6.04 792 L13.5 792 L13.5 811.44 L31.1 811.44" class="st6"/>
		</g>
		<g id="shape44-78" v:mID="44" v:groupContext="shape" v:layerMember="0" transform="translate(83.4408,-599.897)">
			<title>Dynamic connector.44</title>
			<path d="M1.35 797.68 L1.35 798.04 L1.35 971.24 L7.01 971.24" class="st6"/>
		</g>
		<g id="shape45-85" v:mID="45" v:groupContext="shape" v:layerMember="0" transform="translate(84.7908,-599.897)">
			<title>Dynamic connector.45</title>
			<path d="M0 797.68 L0 798.04 L0 1036.94 L14.66 1036.94" class="st6"/>
		</g>
		<g id="shape46-92" v:mID="46" v:groupContext="shape" v:layerMember="0" transform="translate(84.7908,-599.897)">
			<title>Dynamic connector.46</title>
			<path d="M0 797.68 L0 798.04 L0 1086.62 L14.66 1086.62" class="st6"/>
		</g>
		<g id="shape47-99" v:mID="47" v:groupContext="shape" v:layerMember="0" transform="translate(84.7908,-599.897)">
			<title>Dynamic connector.47</title>
			<path d="M0 797.68 L0 798.04 L0 1136.3 L14.66 1136.3" class="st6"/>
		</g>
		<g id="shape48-106" v:mID="48" v:groupContext="shape" v:layerMember="0" transform="translate(84.7908,-599.897)">
			<title>Dynamic connector.48</title>
			<path d="M0 797.68 L0 798.04 L0 1185.98 L14.66 1185.98" class="st6"/>
		</g>
		<g id="shape49-113" v:mID="49" v:groupContext="shape" v:layerMember="0" transform="translate(84.7908,-599.897)">
			<title>Dynamic connector.49</title>
			<path d="M0 797.68 L0 798.04 L0 1237.46 L15.8 1237.46" class="st6"/>
		</g>
		<g id="shape50-120" v:mID="50" v:groupContext="shape" v:layerMember="0" transform="translate(177.491,-411.66)">
			<title>Dynamic connector.50</title>
			<path d="M5.68 792 L6.04 792 L6.75 792 L6.75 768.06 L12.31 768.06" class="st6"/>
		</g>
		<g id="shape51-127" v:mID="51" v:groupContext="shape" v:layerMember="0" transform="translate(177.491,-411.66)">
			<title>Dynamic connector.51</title>
			<path d="M5.68 792 L6.04 792 L6.75 792 L6.75 818.46 L12.31 818.46" class="st6"/>
		</g>
		<g id="shape52-134" v:mID="52" v:groupContext="shape" transform="translate(191.163,-504)">
			<title>Web page.52</title>
			<desc>Dashboard User</desc>
			<v:userDefs>
				<v:ud v:nameU="min_width" v:val="VT0(0.47615134648611):1"/>
				<v:ud v:nameU="visVersion" v:prompt="" v:val="VT0(15):26"/>
				<v:ud v:nameU="min_width" v:prompt="" v:val="VT0(1):1"/>
			</v:userDefs>
			<v:textBlock v:margins="rect(4,4,4,4)"/>
			<v:textRect cx="44.4872" cy="774" width="88.98" height="36"/>
			<rect x="0" y="756" width="88.9745" height="36" rx="9" ry="9" class="st3"/>
			<text x="5.36" y="777.6" class="st5" v:langID="1033"><v:paragraph v:horizAlign="1"/><v:tabList/>Dashboard User</text>		</g>
		<g id="shape53-137" v:mID="53" v:groupContext="shape" transform="translate(195.839,-457.2)">
			<title>Web page.53</title>
			<desc>User’s list</desc>
			<v:userDefs>
				<v:ud v:nameU="min_width" v:val="VT0(0.47615134648611):1"/>
				<v:ud v:nameU="visVersion" v:prompt="" v:val="VT0(15):26"/>
				<v:ud v:nameU="min_width" v:prompt="" v:val="VT0(0.80395209721853):1"/>
			</v:userDefs>
			<v:textBlock v:margins="rect(4,4,4,4)"/>
			<v:textRect cx="36" cy="774" width="72" height="36"/>
			<rect x="0" y="756" width="72" height="36" rx="9" ry="9" class="st3"/>
			<text x="12.42" y="777.6" class="st5" v:langID="1033"><v:paragraph v:horizAlign="1"/><v:tabList/>User’s list</text>		</g>
		<g id="shape54-140" v:mID="54" v:groupContext="shape" v:layerMember="0" transform="translate(177.127,-496.8)">
			<title>Dynamic connector.54</title>
			<path d="M6.04 792 L6.4 792 L7.11 792 L7.11 766.8 L8 766.8" class="st6"/>
		</g>
		<g id="shape55-147" v:mID="55" v:groupContext="shape" v:layerMember="0" transform="translate(177.491,-496.8)">
			<title>Dynamic connector.55</title>
			<path d="M5.68 792 L6.04 792 L6.75 792 L6.75 813.6 L12.31 813.6" class="st6"/>
		</g>
		<g id="shape68-154" v:mID="68" v:groupContext="shape" v:layerMember="0" transform="translate(84.3408,-599.897)">
			<title>Dynamic connector</title>
			<path d="M0.45 797.68 L0.45 798.04 L0.45 819.5 L7.91 819.5" class="st6"/>
		</g>
		<g id="group58-161" transform="translate(115.633,-108)" v:mID="58" v:groupContext="group">
			<title>Sheet.58</title>
			<g id="shape24-162" v:mID="24" v:groupContext="shape" transform="translate(109.142,-45.72)">
				<title>Web page.24</title>
				<desc>Report-User</desc>
				<v:userDefs>
					<v:ud v:nameU="min_width" v:val="VT0(0.47615134648611):1"/>
					<v:ud v:nameU="visVersion" v:prompt="" v:val="VT0(15):26"/>
					<v:ud v:nameU="min_width" v:prompt="" v:val="VT0(0.9758309119158):1"/>
				</v:userDefs>
				<v:textBlock v:margins="rect(4,4,4,4)"/>
				<v:textRect cx="36" cy="774" width="72" height="36"/>
				<rect x="0" y="756" width="72" height="36" rx="9" ry="9" class="st3"/>
				<text x="6.23" y="777.6" class="st5" v:langID="1033"><v:paragraph v:horizAlign="1"/><v:tabList/>Report-User</text>			</g>
			<g id="shape25-165" v:mID="25" v:groupContext="shape" transform="translate(109.142,0)">
				<title>Web page.25</title>
				<desc>Report-Project</desc>
				<v:userDefs>
					<v:ud v:nameU="min_width" v:val="VT0(0.47615134648611):1"/>
					<v:ud v:nameU="visVersion" v:prompt="" v:val="VT0(15):26"/>
					<v:ud v:nameU="min_width" v:prompt="" v:val="VT0(1):1"/>
				</v:userDefs>
				<v:textBlock v:margins="rect(4,4,4,4)"/>
				<v:textRect cx="41.1798" cy="774" width="82.36" height="36"/>
				<rect x="0" y="756" width="82.3596" height="36" rx="9" ry="9" class="st3"/>
				<text x="5.36" y="777.6" class="st5" v:langID="1033"><v:paragraph v:horizAlign="1"/><v:tabList/>Report-Project</text>			</g>
			<g id="group36-168" transform="translate(0,-19.44)" v:mID="36" v:groupContext="group">
				<v:userDefs>
					<v:ud v:nameU="offset" v:val="VT0(0.062499999999999):1"/>
					<v:ud v:nameU="visVersion" v:prompt="" v:val="VT0(15):26"/>
				</v:userDefs>
				<title>Page group.36</title>
				<desc>Report</desc>
				<g id="shape37-169" v:mID="37" v:groupContext="shape" transform="translate(-9,-9)">
					<title>Sheet.37</title>
					<v:userDefs>
						<v:ud v:nameU="min_width" v:val="VT0(0.11111111111111):1"/>
					</v:userDefs>
					<rect x="0" y="756" width="72" height="36" rx="9" ry="9" class="st3"/>
				</g>
				<g id="shape38-171" v:mID="38" v:groupContext="shape" transform="translate(-4.5,-4.5)">
					<title>Sheet.38</title>
					<v:userDefs>
						<v:ud v:nameU="min_width" v:val="VT0(0.11111111111111):1"/>
					</v:userDefs>
					<rect x="0" y="756" width="72" height="36" rx="9" ry="9" class="st3"/>
				</g>
				<g id="shape36-173" v:mID="36" v:groupContext="groupContent">
					<v:textBlock v:margins="rect(4,4,4,4)"/>
					<v:textRect cx="36" cy="774" width="72" height="36"/>
					<rect x="0" y="756" width="72" height="36" rx="9" ry="9" class="st3"/>
					<text x="19.34" y="777.6" class="st5" v:langID="1033"><v:paragraph v:horizAlign="1"/><v:tabList/>Report</text>				</g>
			</g>
		</g>
		<g id="shape59-176" v:mID="59" v:groupContext="shape" transform="translate(286.186,-457.2)">
			<title>Web page.59</title>
			<desc>Profile</desc>
			<v:userDefs>
				<v:ud v:nameU="min_width" v:val="VT0(0.47615134648611):1"/>
				<v:ud v:nameU="visVersion" v:prompt="" v:val="VT0(15):26"/>
				<v:ud v:nameU="min_width" v:prompt="" v:val="VT0(0.59122550420095):1"/>
			</v:userDefs>
			<v:textBlock v:margins="rect(4,4,4,4)"/>
			<v:textRect cx="36" cy="774" width="72" height="36"/>
			<rect x="0" y="756" width="72" height="36" rx="9" ry="9" class="st3"/>
			<text x="20.07" y="777.6" class="st5" v:langID="1033"><v:paragraph v:horizAlign="1"/><v:tabList/>Profile</text>		</g>
		<g id="shape63-179" v:mID="63" v:groupContext="shape" v:layerMember="0" transform="translate(267.839,-475.2)">
			<title>1-Way data connection</title>
			<v:userDefs>
				<v:ud v:nameU="visVersion" v:prompt="" v:val="VT0(15):26"/>
			</v:userDefs>
			<path d="M0 792 L12.31 792" class="st8"/>
		</g>
		<g id="shape61-184" v:mID="61" v:groupContext="shape" transform="translate(284.373,-367.2)">
			<title>Web page.61</title>
			<desc>Project detail</desc>
			<v:userDefs>
				<v:ud v:nameU="min_width" v:val="VT0(0.47615134648611):1"/>
				<v:ud v:nameU="visVersion" v:prompt="" v:val="VT0(15):26"/>
				<v:ud v:nameU="min_width" v:prompt="" v:val="VT0(1):1"/>
			</v:userDefs>
			<v:textBlock v:margins="rect(4,4,4,4)"/>
			<v:textRect cx="37.8136" cy="774" width="75.63" height="36"/>
			<rect x="0" y="756" width="75.6272" height="36" rx="9" ry="9" class="st3"/>
			<text x="5.36" y="777.6" class="st5" v:langID="1033"><v:paragraph v:horizAlign="1"/><v:tabList/>Project detail</text>		</g>
		<g id="shape64-187" v:mID="64" v:groupContext="shape" v:layerMember="0" transform="translate(267.839,-385.2)">
			<title>1-Way data connection.64</title>
			<v:userDefs>
				<v:ud v:nameU="visVersion" v:prompt="" v:val="VT0(15):26"/>
			</v:userDefs>
			<path d="M0 792 L10.49 792" class="st8"/>
		</g>
		<g id="shape67-192" v:mID="67" v:groupContext="shape" v:layerMember="0" transform="translate(876.791,117) rotate(90)">
			<title>1-Way data connection.67</title>
			<v:userDefs>
				<v:ud v:nameU="visVersion" v:prompt="" v:val="VT0(15):26"/>
			</v:userDefs>
			<path d="M5.68 792 L6.04 792 L20.96 792" class="st6"/>
		</g>
	</g>
</svg>
